<?xml version="1.0" standalone="no"?>
<!DOCTYPE svg PUBLIC "-//W3C//DTD SVG 20010904//EN"
 "http://www.w3.org/TR/2001/REC-SVG-20010904/DTD/svg10.dtd">
<svg version="1.0" xmlns="http://www.w3.org/2000/svg"
 width="1920.000000pt" height="1920.000000pt" viewBox="0 0 1920.000000 1920.000000"
 preserveAspectRatio="xMidYMid meet">

<g transform="translate(0.000000,1920.000000) scale(0.100000,-0.100000)"
fill="#000000" stroke="none">
<path d="M7948 12085 c-410 -78 -742 -414 -813 -824 -81 -461 165 -921 590
-1104 49 -21 99 -42 110 -47 113 -50 379 -58 536 -17 339 89 585 303 712 622
54 135 70 242 64 410 -5 148 -20 220 -67 338 -49 119 -112 216 -202 312 -140
148 -304 248 -488 295 -111 29 -331 36 -442 15z m387 -249 c90 -25 197 -79
278 -140 97 -73 157 -147 217 -265 56 -109 71 -174 77 -316 4 -112 2 -142 -17
-215 -95 -368 -421 -607 -800 -586 -248 13 -453 129 -598 339 -201 290 -166
702 81 965 115 121 241 189 442 236 43 10 262 -2 320 -18z"/>
<path d="M9590 11893 c-25 -9 -50 -35 -50 -52 0 -9 43 -74 95 -145 52 -71 95
-133 95 -138 0 -4 -24 -19 -52 -32 -29 -13 -115 -54 -190 -90 -115 -56 -139
-71 -144 -93 -5 -20 -2 -31 16 -45 12 -10 30 -18 40 -18 9 0 103 41 209 91
105 49 195 88 199 85 4 -3 52 -66 106 -140 104 -143 128 -161 178 -135 57 30
53 45 -57 199 -52 73 -95 136 -95 140 0 6 185 87 333 146 84 33 106 64 67 96
-36 29 -71 21 -276 -66 -99 -42 -185 -76 -191 -76 -6 0 -54 60 -107 134 -100
141 -123 159 -176 139z"/>
<path d="M11247 11532 c-10 -10 -17 -24 -17 -31 0 -7 36 -72 79 -145 44 -72
81 -137 83 -144 2 -9 -57 -35 -172 -76 -97 -35 -186 -68 -198 -75 -32 -17 -45
-47 -32 -71 18 -34 58 -36 135 -8 39 14 126 47 194 72 69 25 130 46 135 46 6
0 47 -62 91 -136 82 -139 112 -174 149 -174 31 0 66 28 66 52 0 11 -36 83 -80
159 -44 76 -80 142 -80 147 0 4 93 37 206 73 228 71 252 85 215 130 -28 35
-69 30 -276 -36 -99 -32 -187 -59 -195 -62 -11 -3 -37 34 -89 124 -41 70 -83
138 -94 151 -26 29 -96 31 -120 4z"/>
<path d="M9990 10684 c-120 -25 -243 -82 -327 -151 -62 -51 -59 -100 6 -116
27 -7 50 3 101 44 99 79 259 129 409 129 129 0 215 -20 330 -76 116 -57 207
-142 266 -249 21 -38 45 -76 53 -82 37 -30 102 -3 102 42 0 39 -67 150 -134
222 -162 174 -357 254 -615 252 -69 0 -155 -7 -191 -15z"/>
<path d="M6303 10083 c9 -2 23 -2 30 0 6 3 -1 5 -18 5 -16 0 -22 -2 -12 -5z"/>
<path d="M6388 10083 c7 -3 16 -2 19 1 4 3 -2 6 -13 5 -11 0 -14 -3 -6 -6z"/>
<path d="M6433 10083 c9 -2 23 -2 30 0 6 3 -1 5 -18 5 -16 0 -22 -2 -12 -5z"/>
<path d="M6573 10083 c9 -2 23 -2 30 0 6 3 -1 5 -18 5 -16 0 -22 -2 -12 -5z"/>
<path d="M5983 9823 c53 -2 141 -2 195 0 53 1 9 3 -98 3 -107 0 -151 -2 -97
-3z"/>
<path d="M6353 9823 c43 -2 110 -2 150 0 40 1 5 3 -78 3 -82 0 -115 -2 -72 -3z"/>
<path d="M6588 9823 c6 -2 18 -2 25 0 6 3 1 5 -13 5 -14 0 -19 -2 -12 -5z"/>
<path d="M6638 9823 c7 -3 16 -2 19 1 4 3 -2 6 -13 5 -11 0 -14 -3 -6 -6z"/>
<path d="M5740 9720 c0 -5 7 -10 15 -10 8 0 15 5 15 10 0 6 -7 10 -15 10 -8 0
-15 -4 -15 -10z"/>
<path d="M5825 9720 c-3 -5 1 -10 9 -10 9 0 16 5 16 10 0 6 -4 10 -9 10 -6 0
-13 -4 -16 -10z"/>
<path d="M5860 9722 c0 -4 9 -8 20 -8 11 0 20 4 20 8 0 4 -9 8 -20 8 -11 0
-20 -4 -20 -8z"/>
<path d="M5970 9722 c0 -5 7 -9 15 -9 8 0 15 4 15 9 0 4 -7 8 -15 8 -8 0 -15
-4 -15 -8z"/>
<path d="M6030 9722 c0 -5 7 -9 15 -9 8 0 15 4 15 9 0 4 -7 8 -15 8 -8 0 -15
-4 -15 -8z"/>
<path d="M6290 9602 c0 -8 131 -5 139 4 2 2 -28 4 -67 4 -40 0 -72 -4 -72 -8z"/>
<path d="M5980 9584 c-80 -7 -216 -13 -303 -12 -87 0 -161 -3 -164 -6 -4 -3
13 -6 37 -6 55 0 44 -13 -13 -15 -45 -2 -104 -22 -94 -31 8 -8 -18 -34 -34
-34 -20 0 -91 -81 -85 -97 3 -8 2 -12 -3 -9 -5 3 -11 -1 -14 -8 -3 -8 -1 -17
6 -20 9 -3 9 -5 0 -5 -7 -1 -13 -12 -13 -26 0 -14 6 -25 13 -25 8 -1 7 -5 -3
-13 -14 -11 -17 -30 -12 -90 1 -10 5 -16 10 -14 4 3 8 -5 8 -18 2 -23 12 -37
67 -85 20 -17 28 -20 27 -10 -4 26 0 40 10 40 6 0 10 -6 9 -12 -4 -35 3 -50
31 -59 17 -6 30 -15 30 -20 0 -5 14 -9 30 -9 17 0 30 5 30 10 0 6 15 10 34 10
19 0 38 5 41 10 4 6 10 8 15 5 5 -3 15 2 24 10 8 9 19 16 23 15 21 0 43 13 43
26 0 8 9 14 20 14 11 0 20 4 20 8 0 5 18 18 40 31 22 12 40 29 40 36 0 9 6 12
15 9 8 -4 15 -2 15 2 0 5 27 25 60 44 33 19 60 41 60 48 0 7 3 11 8 9 4 -3 13
1 20 9 7 8 8 14 2 14 -5 0 -10 5 -10 11 0 5 5 7 10 4 6 -3 10 4 11 17 1 23 1
23 9 -2 5 -14 8 -18 9 -9 1 9 10 19 21 22 13 3 18 1 14 -6 -5 -8 -2 -7 7 1 7
6 21 12 32 12 10 0 16 4 12 9 -3 6 10 17 30 27 19 9 35 19 35 23 0 3 -70 5
-155 3 -109 -2 -155 0 -155 8 0 6 5 8 10 5 6 -3 10 1 10 9 0 22 30 20 31 -1 0
-15 2 -15 9 2 l9 20 1 -20 c1 -15 3 -17 8 -5 10 21 32 23 33 3 0 -15 2 -15 9
2 l9 20 1 -20 1 -20 9 20 9 20 1 -20 1 -20 9 20 c7 17 9 17 9 3 1 -10 8 -18
17 -18 10 0 14 6 10 15 -4 12 3 15 29 15 26 0 35 -4 36 -17 1 -12 4 -10 9 7
l8 25 2 -25 c1 -23 2 -23 10 -5 6 13 9 15 9 5 1 -13 2 -13 11 0 8 12 10 12 11
-5 1 -17 2 -16 9 5 4 14 8 19 9 13 1 -7 6 -13 12 -13 5 0 7 5 4 10 -3 6 4 10
15 10 14 0 24 8 27 21 3 11 11 18 17 16 7 -3 23 1 37 9 18 10 20 13 7 14 -10
0 -18 8 -19 18 0 14 -2 14 -7 2 -9 -21 -182 -23 -182 -2 0 7 5 10 12 6 7 -4 8
-3 4 4 -12 19 -26 14 -26 -10 0 -19 -2 -20 -11 -8 -8 12 -12 12 -16 2 -3 -9
-10 -7 -24 9 l-19 22 0 -21 c0 -17 -6 -22 -25 -22 -18 0 -25 5 -25 19 0 11 -6
22 -12 24 -11 5 132 12 155 8 4 0 7 4 7 9 0 11 5 11 -190 -6z m-50 -34 c0 -12
-7 -20 -17 -20 -15 0 -16 2 -3 10 13 9 13 10 0 10 -13 0 -13 1 0 10 20 13 20
13 20 -10z m59 -2 c0 -22 -1 -22 -9 -3 -6 15 -9 16 -9 4 -1 -22 -31 -20 -31 3
0 13 7 18 25 18 19 0 25 -5 24 -22z m-326 5 c-13 -2 -33 -2 -45 0 -13 2 -3 4
22 4 25 0 35 -2 23 -4z m344 -15 c-3 -8 -6 -5 -6 6 -1 11 2 17 5 13 3 -3 4
-12 1 -19z m-127 8 c0 -2 -11 -6 -25 -8 -14 -3 -25 -1 -25 3 0 5 11 9 25 9 14
0 25 -2 25 -4z m-183 -58 c-3 -8 -6 -5 -6 6 -1 11 2 17 5 13 3 -3 4 -12 1 -19z
m60 0 c-3 -8 -6 -5 -6 6 -1 11 2 17 5 13 3 -3 4 -12 1 -19z m183 16 c-34 -7
-110 -9 -110 -2 0 5 28 7 63 7 34 -1 55 -3 47 -5z m70 -9 c0 -8 -8 -15 -17
-15 -15 0 -15 2 -4 9 11 7 9 10 -10 14 -23 4 -22 4 4 6 18 1 27 -4 27 -14z
m57 -7 c-3 -8 -6 -5 -6 6 -1 11 2 17 5 13 3 -3 4 -12 1 -19z m173 10 c0 -9 4
-8 10 2 8 13 10 12 10 -2 0 -16 -11 -18 -92 -17 -51 1 -84 4 -73 7 l20 5 -20
8 c-13 5 11 8 63 8 59 1 82 -2 82 -11z m47 -3 c0 -8 -4 -15 -9 -15 -4 0 -8 7
-8 15 0 8 4 15 8 15 5 0 9 -7 9 -15z m-634 -12 c-7 -2 -19 -2 -25 0 -7 3 -2 5
12 5 14 0 19 -2 13 -5z m84 1 c-3 -3 -12 -4 -19 -1 -8 3 -5 6 6 6 11 1 17 -2
13 -5z m-310 -44 c1 -16 -3 -18 -30 -13 -42 8 -47 13 -14 13 15 0 27 5 27 10
0 19 16 10 17 -10z m456 -17 c-7 -2 -19 -2 -25 0 -7 3 -2 5 12 5 14 0 19 -2
13 -5z m-456 -39 c-9 -9 -28 6 -21 18 4 6 10 6 17 -1 6 -6 8 -13 4 -17z m560
4 c-3 -8 -6 -5 -6 6 -1 11 2 17 5 13 3 -3 4 -12 1 -19z m138 -5 c-13 -13 -17
-13 -30 0 -17 17 -3 27 27 19 15 -4 15 -6 3 -19z m-268 -5 c-3 -8 -6 -5 -6 6
-1 11 2 17 5 13 3 -3 4 -12 1 -19z m50 0 c-3 -8 -6 -5 -6 6 -1 11 2 17 5 13 3
-3 4 -12 1 -19z m-477 -52 c0 -19 -4 -37 -9 -40 -10 -7 -21 42 -14 61 10 25
23 13 23 -21z m477 2 c-3 -8 -6 -5 -6 6 -1 11 2 17 5 13 3 -3 4 -12 1 -19z
m100 -15 c-3 -10 -5 -4 -5 12 0 17 2 24 5 18 2 -7 2 -21 0 -30z m-654 10 c-7
-2 -21 -2 -30 0 -10 3 -4 5 12 5 17 0 24 -2 18 -5z m424 -45 c-3 -7 -5 -2 -5
12 0 14 2 19 5 13 2 -7 2 -19 0 -25z m78 3 c-3 -6 -11 -11 -16 -11 -5 0 -4 6
3 14 14 16 24 13 13 -3z m86 10 c7 11 9 10 9 -4 0 -20 -22 -19 -26 1 -2 9 -1
9 3 1 4 -8 8 -7 14 2z m-511 -56 c0 -8 -4 -15 -10 -15 -5 0 -10 7 -10 15 0 8
5 15 10 15 6 0 10 -7 10 -15z m0 -55 c0 -22 -5 -23 -35 -10 -17 7 -17 9 -2 9
9 1 17 6 17 11 0 6 5 10 10 10 6 0 10 -9 10 -20z m0 -45 c0 -8 -4 -15 -10 -15
-5 0 -10 7 -10 15 0 8 5 15 10 15 6 0 10 -7 10 -15z m267 -17 c-3 -8 -6 -5 -6
6 -1 11 2 17 5 13 3 -3 4 -12 1 -19z m-130 -54 c-3 -3 -12 -4 -19 -1 -8 3 -5
6 6 6 11 1 17 -2 13 -5z"/>
<path d="M6148 9493 c7 -3 16 -2 19 1 4 3 -2 6 -13 5 -11 0 -14 -3 -6 -6z"/>
<path d="M6193 9493 c9 -2 23 -2 30 0 6 3 -1 5 -18 5 -16 0 -22 -2 -12 -5z"/>
<path d="M6188 9593 c7 -3 16 -2 19 1 4 3 -2 6 -13 5 -11 0 -14 -3 -6 -6z"/>
<path d="M6240 9592 c0 -5 7 -9 15 -9 8 0 15 4 15 9 0 4 -7 8 -15 8 -8 0 -15
-4 -15 -8z"/>
<path d="M6360 9580 c0 -13 49 -18 65 -6 12 9 7 11 -25 13 -22 1 -40 -2 -40
-7z"/>
<path d="M6031 9554 c0 -11 3 -14 6 -6 3 7 2 16 -1 19 -3 4 -6 -2 -5 -13z"/>
<path d="M6051 9554 c0 -11 3 -14 6 -6 3 7 2 16 -1 19 -3 4 -6 -2 -5 -13z"/>
<path d="M13008 8193 c6 -2 18 -2 25 0 6 3 1 5 -13 5 -14 0 -19 -2 -12 -5z"/>
<path d="M13523 8193 c15 -2 39 -2 55 0 15 2 2 4 -28 4 -30 0 -43 -2 -27 -4z"/>
<path d="M13963 8193 c9 -2 23 -2 30 0 6 3 -1 5 -18 5 -16 0 -22 -2 -12 -5z"/>
<path d="M14168 8193 c7 -3 16 -2 19 1 4 3 -2 6 -13 5 -11 0 -14 -3 -6 -6z"/>
<path d="M14468 8193 c6 -2 18 -2 25 0 6 3 1 5 -13 5 -14 0 -19 -2 -12 -5z"/>
<path d="M15403 8193 c26 -2 68 -2 95 0 26 2 4 3 -48 3 -52 0 -74 -1 -47 -3z"/>
<path d="M15918 8193 c7 -3 16 -2 19 1 4 3 -2 6 -13 5 -11 0 -14 -3 -6 -6z"/>
<path d="M6085 8118 c-4 -22 -13 -55 -20 -72 -13 -30 -13 -30 -18 -6 -2 14 -5
0 -6 -30 -1 -30 -7 -77 -15 -105 l-13 -50 -12 35 c-10 32 -11 31 -6 -23 6 -70
-14 -203 -26 -172 -5 13 -8 1 -8 -39 -1 -32 -12 -129 -26 -215 -13 -86 -26
-175 -28 -199 -4 -41 -12 -60 -21 -51 -3 2 -6 61 -7 131 -2 104 1 131 15 152
17 27 9 35 -12 14 -9 -9 -12 -3 -12 28 0 26 9 53 27 79 l26 40 -28 -25 -27
-25 3 48 c4 51 4 53 -15 35 -8 -8 -10 -24 -6 -48 3 -19 4 -43 2 -54 -3 -16 -7
-15 -23 10 -25 38 -24 14 1 -36 11 -22 20 -53 20 -70 l0 -31 -25 28 -25 28 17
-38 c14 -31 15 -40 4 -46 -9 -6 -7 -10 8 -14 23 -6 31 -57 9 -57 -10 0 -9 -3
0 -9 18 -11 28 -145 11 -139 -17 6 -120 352 -134 453 -11 81 -13 85 -15 40
l-2 -50 -23 70 c-14 40 -24 95 -24 128 -1 59 -20 82 -22 25 -1 -33 -1 -32 -25
17 -13 28 -24 60 -24 73 0 12 -4 22 -10 22 -11 0 -60 93 -60 115 0 8 -4 15
-10 15 -13 0 -12 -10 5 -40 19 -34 19 -45 -2 -29 -10 8 -3 -3 15 -24 51 -60
84 -150 40 -110 -47 42 -51 34 -7 -13 53 -55 61 -69 96 -163 56 -150 173 -506
173 -528 0 -1 -13 -3 -28 -3 -25 0 -31 6 -42 43 -7 23 -18 78 -25 122 -9 52
-14 68 -15 45 l-2 -35 -13 40 c-7 22 -17 67 -21 100 -6 50 -8 55 -13 30 -6
-30 -6 -30 -20 15 -14 49 -79 190 -87 190 -2 0 2 -16 10 -35 9 -21 11 -35 5
-35 -6 0 1 -14 15 -31 14 -17 26 -34 26 -39 0 -5 3 -17 7 -27 6 -17 5 -17 -13
-2 -43 36 -46 29 -7 -12 54 -57 102 -165 56 -128 -9 8 -3 -6 14 -31 26 -39 73
-167 73 -199 0 -6 -20 -11 -49 -11 -40 0 -50 4 -54 19 -3 13 1 21 12 24 14 4
14 5 -1 6 -17 1 -19 7 -22 86 -1 20 -20 29 -22 10 -1 -5 -3 -17 -4 -25 -5 -39
-39 92 -39 153 -1 43 -5 66 -11 62 -5 -3 -10 -23 -11 -43 l0 -37 -21 45 c-12
25 -27 72 -33 105 -7 33 -14 49 -14 35 l-2 -25 -13 24 c-7 14 -24 26 -37 28
-22 3 -22 2 8 -29 27 -28 63 -93 63 -113 0 -3 -15 5 -33 19 -54 41 -53 30 2
-21 32 -30 60 -69 76 -106 29 -67 30 -74 10 -57 -27 22 -27 4 -1 -27 21 -25
66 -113 66 -129 0 -2 -197 -5 -437 -7 l-438 -2 441 -3 441 -2 17 -57 c10 -32
20 -64 23 -70 4 -10 -32 -13 -161 -13 l-166 0 0 -55 0 -55 -742 -3 -743 -2
742 -3 742 -2 0 -125 1 -125 -563 -3 -562 -2 563 -3 c555 -2 562 -2 562 -22 0
-18 7 -20 80 -20 78 0 80 -1 80 -25 0 -23 -3 -24 -72 -28 l-73 -3 73 -2 c59
-2 72 -5 72 -18 0 -15 15 -16 149 -9 92 4 151 3 155 -3 3 -5 8 -30 10 -54 3
-25 7 -56 10 -69 3 -13 8 -46 11 -73 3 -27 8 -53 11 -58 3 -4 -3 -8 -13 -9
-17 0 -17 -1 0 -8 10 -4 18 -10 18 -14 -1 -4 -1 -8 0 -9 3 -10 8 -53 14 -110
4 -38 10 -68 15 -68 8 0 6 62 -5 148 l-4 32 52 1 52 2 -40 7 -40 7 40 3 40 3
-40 7 -40 7 40 3 c37 3 37 4 9 7 -35 4 -33 -8 -20 133 3 30 6 58 6 63 0 4 6 7
13 7 9 0 13 -10 12 -27 -2 -31 4 -53 14 -53 4 0 6 26 6 58 -1 31 4 60 9 64 6
4 66 8 134 8 74 0 122 4 122 10 0 6 36 11 83 12 l82 2 -80 3 c-47 3 -82 9 -87
16 -5 8 -8 4 -8 -11 0 -22 -1 -23 -122 -20 -68 2 -121 7 -120 12 2 5 -2 13
-10 17 -10 7 -10 9 0 9 7 0 11 4 8 9 -11 17 28 21 224 21 l199 0 3 178 c2 97
2 192 0 210 l-3 32 -180 0 c-98 0 -179 4 -179 8 0 23 58 171 78 199 25 36 29
51 7 33 -13 -11 -13 -7 0 31 9 25 37 65 63 92 25 26 41 47 36 47 -6 0 -19 -9
-29 -20 -10 -11 -22 -20 -26 -20 -11 0 9 47 33 79 10 13 15 27 12 32 -2 5 2
23 11 40 9 17 12 28 6 25 -6 -4 -21 -29 -32 -57 -12 -27 -25 -49 -30 -49 -5 0
-12 -18 -15 -40 -4 -22 -13 -48 -20 -57 -13 -17 -13 -17 -14 1 0 38 -10 8 -20
-63 -12 -87 -22 -108 -31 -66 -6 25 -7 23 -8 -17 -1 -48 -1 -48 -36 -48 -21 0
-35 5 -35 13 0 6 12 63 26 125 25 107 27 112 52 113 26 2 26 2 3 6 -20 4 -22
9 -17 36 4 18 20 53 36 80 28 44 29 62 2 35 -16 -16 -15 -11 8 57 12 34 39 80
66 111 52 61 51 69 -2 22 -36 -31 -37 -32 -29 -8 16 53 37 96 58 120 13 14 14
19 5 11 -21 -15 -23 -5 -8 35 6 15 9 29 7 31 -2 2 -14 -24 -27 -58 -16 -44
-25 -58 -31 -48 -6 10 -9 3 -9 -20 0 -19 -8 -62 -17 -95 l-17 -59 -12 39 c-12
38 -12 37 -13 -41 -1 -81 -28 -213 -30 -150 -1 17 -6 37 -11 45 -7 11 -10 -1
-11 -40 -1 -30 0 -65 0 -77 2 -13 -5 -23 -16 -26 -16 -4 -16 -5 -1 -6 15 -1
16 -5 7 -28 -6 -16 -10 -30 -9 -33 1 -10 -11 -96 -22 -142 -9 -42 -13 -48 -35
-48 -24 0 -24 2 -18 53 32 270 57 423 77 461 6 11 11 44 13 75 2 64 21 106 77
174 45 54 36 65 -11 12 -23 -26 -31 -31 -31 -18 1 28 26 92 44 112 18 20 21
36 6 26 -7 -4 -8 8 -4 34 4 23 4 41 1 41 -3 0 -8 -19 -12 -42z m-315 -1004
c11 -36 20 -68 20 -70 0 -2 -25 -4 -55 -4 -46 0 -55 3 -55 18 0 9 -9 41 -20
70 l-20 52 55 0 54 0 21 -66z m69 10 c7 -31 15 -63 18 -70 4 -10 -3 -14 -24
-14 -27 0 -30 4 -46 64 -21 81 -22 76 11 76 25 0 29 -5 41 -56z m21 34 c0 -19
-2 -20 -10 -8 -13 19 -13 30 0 30 6 0 10 -10 10 -22z m39 -15 c-1 -21 -5 -49
-9 -63 -6 -19 -8 -9 -9 38 -1 35 3 62 9 62 6 0 10 -17 9 -37z m57 -17 c-8 -68
-14 -86 -33 -86 -11 0 -14 12 -12 53 4 73 9 87 32 87 18 0 19 -4 13 -54z m99
42 c-2 -7 -11 -39 -20 -70 -15 -54 -17 -58 -46 -58 -28 0 -30 2 -25 28 3 15 8
46 11 70 7 41 8 42 46 42 26 0 37 -4 34 -12z m-282 -555 c2 -5 7 -21 11 -36
l7 -28 -88 3 c-92 3 -101 9 -81 51 7 14 22 17 78 17 38 0 71 -3 73 -7z m-243
-24 c0 -5 -8 -9 -17 -8 -11 0 -13 3 -5 6 6 2 9 10 6 15 -4 7 -2 8 4 4 7 -4 12
-11 12 -17z m342 -81 c0 -13 2 -36 4 -53 8 -93 4 -205 -8 -205 -4 0 -8 12 -8
28 0 15 -9 76 -20 136 -11 60 -20 111 -20 113 0 2 11 3 25 3 19 0 25 -6 27
-22z m75 16 c-3 -3 -12 -4 -19 -1 -8 3 -5 6 6 6 11 1 17 -2 13 -5z m0 -20 c-3
-3 -12 -4 -19 -1 -8 3 -5 6 6 6 11 1 17 -2 13 -5z"/>
<path d="M5561 8004 c0 -11 3 -14 6 -6 3 7 2 16 -1 19 -3 4 -6 -2 -5 -13z"/>
<path d="M15778 7933 c12 -2 32 -2 45 0 12 2 2 4 -23 4 -25 0 -35 -2 -22 -4z"/>
<path d="M6030 7775 c-7 -9 -10 -18 -7 -21 3 -3 10 4 17 15 13 25 8 27 -10 6z"/>
<path d="M5951 7734 c0 -11 3 -14 6 -6 3 7 2 16 -1 19 -3 4 -6 -2 -5 -13z"/>
<path d="M5400 7725 c1 -6 7 -21 16 -35 l15 -25 -7 25 c-7 26 -24 52 -24 35z"/>
<path d="M5153 7443 c9 -2 23 -2 30 0 6 3 -1 5 -18 5 -16 0 -22 -2 -12 -5z"/>
<path d="M6263 7443 c9 -2 23 -2 30 0 6 3 -1 5 -18 5 -16 0 -22 -2 -12 -5z"/>
<path d="M6153 7183 c26 -2 68 -2 95 0 26 2 4 3 -48 3 -52 0 -74 -1 -47 -3z"/>
<path d="M12778 6893 c68 -2 176 -2 240 0 64 1 9 3 -123 3 -132 0 -185 -2
-117 -3z"/>
<path d="M13153 6893 c9 -2 25 -2 35 0 9 3 1 5 -18 5 -19 0 -27 -2 -17 -5z"/>
<path d="M13238 6893 c18 -2 45 -2 60 0 15 2 0 4 -33 4 -33 0 -45 -2 -27 -4z"/>
<path d="M12738 6633 c50 -2 134 -2 185 0 50 1 9 3 -93 3 -102 0 -143 -2 -92
-3z"/>
<path d="M13408 6633 c28 -2 76 -2 105 0 28 2 5 3 -53 3 -58 0 -81 -1 -52 -3z"/>
<path d="M13753 6633 c103 -2 271 -2 375 0 103 1 18 2 -188 2 -206 0 -291 -1
-187 -2z"/>
<path d="M14422 6633 c59 -2 158 -2 220 0 62 1 14 3 -107 3 -121 0 -172 -2
-113 -3z"/>
<path d="M14778 6633 c12 -2 30 -2 40 0 9 3 -1 5 -23 4 -22 0 -30 -2 -17 -4z"/>
<path d="M4618 6563 c133 -2 351 -2 485 0 133 1 24 2 -243 2 -267 0 -376 -1
-242 -2z"/>
<path d="M6212 6475 c0 -16 2 -22 5 -12 2 9 2 23 0 30 -3 6 -5 -1 -5 -18z"/>
<path d="M5510 6427 c0 -15 -35 -17 -397 -20 l-398 -2 398 -3 397 -2 0 -22 c0
-13 3 -33 6 -45 l6 -23 -273 -3 -274 -2 271 -3 271 -2 7 -46 c3 -26 6 -59 6
-75 0 -15 4 -30 8 -33 5 -3 7 17 4 43 -4 46 -3 50 19 54 24 4 24 4 2 6 -13 0
-24 7 -25 14 -3 28 -8 75 -13 121 -5 47 -15 77 -15 43z"/>
<path d="M6207 6406 c-4 -10 1 -12 14 -9 23 6 24 9 5 16 -8 3 -17 0 -19 -7z"/>
<path d="M6202 6343 l-2 -43 93 2 92 2 -87 3 -87 4 -4 37 -4 37 -1 -42z"/>
<path d="M12648 6373 c7 -3 16 -2 19 1 4 3 -2 6 -13 5 -11 0 -14 -3 -6 -6z"/>
<path d="M12848 6373 c29 -2 74 -2 100 0 26 2 2 3 -53 3 -55 0 -76 -1 -47 -3z"/>
<path d="M13383 6373 c26 -2 68 -2 95 0 26 2 4 3 -48 3 -52 0 -74 -1 -47 -3z"/>
<path d="M13803 6373 c42 -2 112 -2 155 0 42 1 7 3 -78 3 -85 0 -120 -2 -77
-3z"/>
<path d="M5928 6303 c6 -2 18 -2 25 0 6 3 1 5 -13 5 -14 0 -19 -2 -12 -5z"/>
<path d="M6192 6265 c0 -16 2 -22 5 -12 2 9 2 23 0 30 -3 6 -5 -1 -5 -18z"/>
<path d="M6186 6203 c-2 -16 -8 -58 -11 -95 l-7 -68 -1251 0 c-1147 0 -1252
-2 -1269 -17 -24 -22 -24 -69 1 -83 30 -16 9153 -14 9169 2 16 16 15 60 0 81
-12 15 -246 17 -3320 19 -1818 2 -3309 6 -3313 10 -4 4 -4 25 0 47 5 30 12 41
28 44 21 4 21 4 -1 6 -22 1 -23 4 -17 41 8 44 0 56 -9 13z"/>
<path d="M13350 6120 l-25 -8 28 -1 c15 -1 27 4 27 9 0 6 -1 10 -2 9 -2 -1
-14 -5 -28 -9z"/>
<path d="M12843 6113 c26 -2 67 -2 90 0 23 2 2 3 -48 3 -49 0 -68 -1 -42 -3z"/>
<path d="M14370 6020 c-25 -25 -26 -52 -2 -73 17 -16 97 -17 945 -17 l927 0
15 24 c18 27 7 69 -20 80 -9 3 -428 6 -931 6 -901 0 -914 0 -934 -20z"/>
<path d="M13050 5404 l0 -156 -45 40 c-117 103 -277 68 -352 -77 -29 -55 -33
-72 -33 -139 0 -96 28 -161 93 -218 93 -82 215 -85 306 -7 45 38 51 40 51 14
0 -28 31 -60 60 -62 62 -5 70 -1 70 37 0 21 -8 47 -20 61 -19 24 -20 41 -20
344 l0 319 -55 0 -55 0 0 -156z m-91 -174 c21 -10 50 -33 65 -50 23 -28 26
-40 26 -113 0 -97 -17 -134 -75 -161 -47 -23 -130 -18 -168 10 -32 23 -77 107
-77 143 0 74 46 152 105 177 43 19 80 17 124 -6z"/>
<path d="M6005 5527 c-3 -6 -4 -172 -3 -367 l3 -355 58 -3 57 -3 0 256 c0 140
3 255 8 255 4 0 16 -13 27 -28 10 -15 100 -129 199 -254 l179 -228 49 0 48 0
0 364 0 364 -42 4 c-24 3 -49 3 -55 0 -10 -3 -13 -69 -15 -265 l-3 -261 -209
267 -210 267 -43 0 c-26 0 -46 -5 -48 -13z"/>
<path d="M7678 5534 c-11 -10 -10 -706 1 -723 7 -10 44 -12 182 -9 167 3 177
5 237 32 136 62 199 183 190 360 -6 112 -35 183 -101 249 -72 73 -130 89 -332
95 -93 2 -173 1 -177 -4z m357 -118 c54 -23 90 -59 114 -116 49 -113 32 -241
-41 -325 -49 -56 -107 -75 -230 -75 l-88 0 0 263 c0 145 3 267 8 271 12 14
195 -1 237 -18z"/>
<path d="M10220 5170 l0 -370 55 0 55 0 1 128 c0 70 2 141 2 157 l2 30 158 3
157 3 0 44 0 45 -155 0 -154 0 -6 33 c-3 17 -5 68 -3 112 l3 80 188 3 188 2
-3 48 -3 47 -242 3 -243 2 0 -370z"/>
<path d="M9010 5429 l0 -89 -35 0 c-35 0 -35 0 -35 -45 0 -45 0 -45 35 -45
l35 0 0 -187 c0 -209 5 -228 60 -255 43 -22 86 -23 156 -2 43 12 54 19 50 32
-3 9 -8 30 -12 45 -5 23 -11 28 -28 23 -62 -18 -74 -18 -95 3 -20 20 -21 32
-21 181 l0 160 61 0 60 0 -3 43 -3 42 -57 3 -57 3 -3 87 -3 87 -52 1 -53 1 0
-88z"/>
<path d="M6948 5336 c-103 -28 -176 -107 -198 -213 -25 -121 34 -247 145 -306
57 -31 193 -31 250 0 159 84 203 298 89 431 -68 80 -186 116 -286 88z m133
-100 c62 -26 99 -88 99 -166 0 -103 -55 -170 -143 -178 -101 -8 -168 54 -175
162 -5 81 25 140 88 173 50 27 84 29 131 9z"/>
<path d="M8530 5337 c-52 -13 -140 -51 -140 -63 0 -4 29 -65 35 -72 1 -1 23 9
48 23 81 46 188 43 232 -5 10 -11 20 -40 23 -65 l5 -46 -44 8 c-92 17 -174 9
-235 -23 -72 -37 -97 -78 -91 -149 11 -151 203 -205 343 -98 38 28 44 30 44
14 0 -25 30 -59 55 -62 60 -5 65 -1 65 45 0 26 -6 48 -15 56 -12 10 -15 39
-15 145 0 134 -8 179 -41 226 -41 58 -167 89 -269 66z m156 -288 c43 -11 44
-12 44 -53 0 -46 -20 -75 -68 -100 -93 -47 -192 -14 -192 65 0 44 11 60 54 80
47 21 98 24 162 8z"/>
<path d="M9500 5339 c-24 -5 -68 -21 -96 -35 l-53 -27 19 -38 20 -38 51 26
c69 36 152 42 197 13 33 -21 62 -72 62 -110 0 -19 -4 -20 -52 -13 -133 20
-234 -2 -287 -62 -93 -107 -6 -264 146 -265 51 0 144 33 168 60 24 27 30 25
45 -10 13 -32 55 -50 97 -42 20 4 23 11 23 47 0 27 -5 45 -14 48 -10 4 -15 40
-18 154 -5 170 -20 214 -86 257 -62 41 -133 52 -222 35z m179 -299 c46 -24 12
-113 -55 -145 -73 -36 -159 -20 -183 32 -24 52 -3 96 59 122 30 13 150 7 179
-9z"/>
<path d="M10985 5346 c-5 -3 -26 -7 -46 -10 -20 -4 -56 -20 -81 -36 -192 -127
-148 -432 71 -497 65 -19 151 -13 207 13 46 22 106 80 130 126 26 50 31 168 9
225 -23 59 -88 131 -140 154 -39 17 -130 32 -150 25z m88 -110 c96 -40 132
-166 76 -266 -59 -105 -205 -109 -267 -8 -91 147 42 337 191 274z"/>
<path d="M12278 5337 c-50 -14 -63 -23 -115 -71 l-33 -30 0 52 0 52 -50 0 -50
0 0 -270 0 -270 55 0 55 0 0 163 c0 156 1 164 25 199 54 80 151 106 202 55
l28 -27 3 -195 3 -195 55 0 54 0 0 212 c0 190 -2 216 -20 253 -34 70 -117 98
-212 72z"/>
<path d="M11392 5133 c3 -189 5 -212 25 -256 38 -82 135 -108 246 -67 29 11
66 34 82 50 36 37 45 38 45 2 0 -46 33 -66 98 -63 19 1 22 6 22 45 0 26 -6 48
-15 56 -12 10 -15 48 -15 226 l0 214 -55 0 -55 0 0 -175 0 -174 -31 -36 c-42
-47 -78 -65 -132 -65 -87 0 -107 54 -107 288 l0 162 -56 0 -55 0 3 -207z"/>
</g>
</svg>
