<svg width="20" height="20" viewBox="0 0 20 20" fill="none" xmlns="http://www.w3.org/2000/svg">
<mask id="mask0_325_4736" style="mask-type:alpha" maskUnits="userSpaceOnUse" x="0" y="0" width="20" height="20">
<rect width="20" height="20" fill="#D9D9D9"/>
</mask>
<g mask="url(#mask0_325_4736)">
<path d="M3.91699 12.1875C3.79199 11.8403 3.69838 11.4861 3.63616 11.125C3.57338 10.7639 3.54199 10.4028 3.54199 10.0417C3.54199 8.23611 4.1706 6.70139 5.42783 5.4375C6.68449 4.17361 8.20866 3.54167 10.0003 3.54167H10.6462L9.54199 2.4375C9.43088 2.3125 9.37533 2.16667 9.37533 2C9.37533 1.83333 9.43088 1.6875 9.54199 1.5625C9.66699 1.4375 9.81644 1.375 9.99033 1.375C10.1637 1.375 10.3059 1.4375 10.417 1.5625L12.5003 3.64583C12.5837 3.71528 12.6392 3.795 12.667 3.885C12.6948 3.97556 12.7087 4.06944 12.7087 4.16667C12.7087 4.26389 12.6948 4.35778 12.667 4.44833C12.6392 4.53833 12.5837 4.61806 12.5003 4.6875L10.417 6.77083C10.3059 6.89583 10.1637 6.95833 9.99033 6.95833C9.81644 6.95833 9.66699 6.89583 9.54199 6.77083C9.43088 6.64583 9.37533 6.5 9.37533 6.33333C9.37533 6.16667 9.43088 6.02083 9.54199 5.89583L10.6462 4.79167H10.0003C8.55588 4.79167 7.32671 5.30194 6.31283 6.3225C5.29894 7.34361 4.79199 8.58333 4.79199 10.0417C4.79199 10.3194 4.81644 10.6006 4.86533 10.885C4.91366 11.17 4.98644 11.4514 5.08366 11.7292C5.13921 11.8403 5.1531 11.9547 5.12533 12.0725C5.09755 12.1908 5.04199 12.2917 4.95866 12.375C4.7781 12.5556 4.58033 12.6283 4.36533 12.5933C4.14977 12.5589 4.00033 12.4236 3.91699 12.1875ZM9.58366 18.4375L7.50033 16.3542C7.41699 16.2847 7.36144 16.2047 7.33366 16.1142C7.30588 16.0242 7.29199 15.9306 7.29199 15.8333C7.29199 15.7361 7.30588 15.6425 7.33366 15.5525C7.36144 15.4619 7.41699 15.3819 7.50033 15.3125L9.58366 13.2292C9.69477 13.1042 9.83727 13.0417 10.0112 13.0417C10.1845 13.0417 10.3337 13.1042 10.4587 13.2292C10.5698 13.3542 10.6253 13.5 10.6253 13.6667C10.6253 13.8333 10.5698 13.9792 10.4587 14.1042L9.35449 15.2083H10.0003C11.4448 15.2083 12.6739 14.6981 13.6878 13.6775C14.7017 12.6564 15.2087 11.4167 15.2087 9.95833C15.2087 9.68056 15.1845 9.39944 15.1362 9.115C15.0873 8.83 15.0142 8.54861 14.917 8.27083C14.8614 8.15972 14.8475 8.045 14.8753 7.92667C14.9031 7.80889 14.9587 7.70833 15.042 7.625C15.2225 7.44444 15.4206 7.37139 15.6362 7.40583C15.8512 7.44083 16.0003 7.57639 16.0837 7.8125C16.2087 8.15972 16.3025 8.51389 16.3653 8.875C16.4275 9.23611 16.4587 9.59722 16.4587 9.95833C16.4587 11.7639 15.8303 13.2986 14.5737 14.5625C13.3164 15.8264 11.792 16.4583 10.0003 16.4583H9.35449L10.4587 17.5625C10.5698 17.6875 10.6253 17.8333 10.6253 18C10.6253 18.1667 10.5698 18.3125 10.4587 18.4375C10.3337 18.5625 10.1845 18.625 10.0112 18.625C9.83727 18.625 9.69477 18.5625 9.58366 18.4375Z" fill="#38414D"/>
</g>
</svg>
